<?xml version="1.0" encoding="utf-8"?>
<!-- Svg Vector Icons : http://www.onlinewebfonts.com/icon -->
<!DOCTYPE svg PUBLIC "-//W3C//DTD SVG 1.1//EN" "http://www.w3.org/Graphics/SVG/1.1/DTD/svg11.dtd">
<svg version="1.1" xmlns="http://www.w3.org/2000/svg" xmlns:xlink="http://www.w3.org/1999/xlink" x="0px" y="0px" viewBox="0 0 1000 1000" enable-background="new 0 0 1000 1000" xml:space="preserve">
<metadata> Svg Vector Icons : http://www.onlinewebfonts.com/icon </metadata>
<g><g transform="translate(0.000000,511.000000) scale(0.100000,-0.100000)"><path d="M1573,3697.7l-139.2-139.2L5022.8-30.5l3586.4-3586.4l144.3,146.8l146.8,144.3L5318.9,255.5c-1969.1,1969.1-3586.4,3581.4-3594,3581.4S1649,3773.6,1573,3697.7z"/><path d="M4559.6,2859.9c-417.6-38-1212.3-200-1270.6-258.2c-10.1-10.1,48.1-86.1,129.1-167.1l151.9-149.3l311.3,65.8c425.2,93.7,675.8,119,1111.1,119c1500.9,0,2946.1-620.1,4011.6-1723.6c124-131.6,270.8-291.1,324-356.9l96.2-121.5L9285,96.1C8834.5-453.1,8135.9-1007.4,7472.8-1339l-187.3-93.7l146.8-146.8l146.8-149.3l179.7,91.1c564.4,283.5,1219.9,792.2,1662.9,1285.7c217.7,243,478.4,582.1,478.4,620.1c0,40.5-260.7,377.1-486,630.2c-898.5,1002.3-2214.6,1703.4-3588.9,1913.4C5564.4,2849.8,4784.9,2880.2,4559.6,2859.9z"/><path d="M2205.8,2133.5C1530,1758.9,861.8,1192,322.7,536.5L100,268.2L317.7,5C1821.1-1822.4,3947.1-2645,6093.4-2224.8c169.6,32.9,389.8,83.5,491,113.9l184.8,55.7l-156.9,156.9l-156.9,159.5l-240.5-58.2c-802.3-194.9-1794.5-177.2-2591.7,40.5C2929.7-1564.3,2223.5-1204.9,1611-724c-255.6,200-974.4,928.9-974.4,989.6c0,63.3,569.5,655.5,883.3,916.2c298.7,250.6,650.5,488.5,974.4,658.1l248,131.6l-146.8,146.8c-81,83.5-149.3,149.3-149.3,149.3S2337.4,2206.9,2205.8,2133.5z"/><path d="M4744.4,1758.9c-139.2-22.8-463.2-144.3-463.2-172.1c0-20.3,2032.4-2052.6,2052.6-2052.6c10.1,0,48.1,75.9,83.5,167C6860.3,804.8,5923.8,1956.4,4744.4,1758.9z"/><path d="M3613,840.2c-164.5-412.6-146.8-850.4,45.6-1242.7c286-577.1,926.3-916.2,1556.5-827.6c187.3,27.9,534.1,141.7,534.1,179.7c0,20.2-2032.4,2052.6-2052.6,2052.6C3686.4,1002.2,3651,928.8,3613,840.2z"/></g></g>
</svg>